<?xml version="1.0" encoding="utf-8" standalone="no"?>
<!DOCTYPE svg PUBLIC "-//W3C//DTD SVG 1.1//EN"
  "http://www.w3.org/Graphics/SVG/1.1/DTD/svg11.dtd">
<!-- Created with matplotlib (http://matplotlib.org/) -->
<svg height="360pt" version="1.1" viewBox="0 0 504 360" width="504pt" xmlns="http://www.w3.org/2000/svg" xmlns:xlink="http://www.w3.org/1999/xlink">
 <defs>
  <style type="text/css">
*{stroke-linecap:butt;stroke-linejoin:round;}
  </style>
 </defs>
 <g id="figure_1">
  <g id="patch_1">
   <path d="
M0 360
L504 360
L504 0
L0 0
z
" style="fill:#ffffff;"/>
  </g>
  <g id="axes_1">
   <g id="patch_2">
    <path d="
M63 324
L453.6 324
L453.6 36
L63 36
z
" style="fill:#ffffff;"/>
   </g>
   <g id="line2d_1">
    <path clip-path="url(#pe2810ebbdc)" d="
M65.4412 322.824
L67.8825 321.48
L70.3237 316.44
L72.765 304.656
L75.2063 308.184
L77.6475 315.024
L80.0887 318.216
L82.53 315.312
L84.9712 310.464
L87.4125 314.736
L89.8538 313.584
L92.295 315.264
L94.7362 319.608
L97.1775 321.192
L99.6187 320.76
L102.06 317.952
L104.501 318.288
L106.943 321.192
L109.384 321.936
L111.825 321.744
L114.266 321.792
L116.707 322.128
L119.149 321.36
L121.59 321.96
L124.031 321.888
L126.472 322.296
L131.355 322.44
L133.796 322.152
L136.238 322.152
L138.679 322.656
L141.12 322.776
L146.002 322.272
L148.444 321.384
L150.885 321.696
L153.326 322.368
L155.767 322.08
L158.209 321.288
L160.65 321.144
L163.091 321.696
L165.533 322.08
L167.974 321.744
L170.415 321.936
L172.856 322.512
L175.297 322.248
L182.621 322.32
L185.062 322.536
L187.504 322.536
L189.945 322.224
L192.386 321.72
L197.269 322.464
L204.592 319.248
L207.034 319.176
L209.475 316.632
L211.916 319.848
L214.358 320.136
L216.799 320.784
L219.24 320.568
L221.681 319.968
L224.122 319.488
L226.564 320.88
L229.005 321.192
L231.446 320.952
L233.887 321.144
L236.329 322.44
L238.77 321.912
L241.211 322.392
L243.653 321.6
L246.094 321.672
L250.976 321.168
L253.417 321.288
L255.859 321.552
L258.3 321.552
L260.741 321.264
L265.624 321.12
L270.506 321.072
L272.948 320.616
L275.389 319.368
L277.83 317.76
L282.712 317.976
L287.595 317.928
L290.036 317.568
L292.477 317.328
L297.36 317.304
L299.801 316.584
L307.125 317.088
L316.89 317.088
L321.773 317.088
L326.655 316.944
L329.096 316.584
L331.538 316.368
L333.979 315.864
L336.42 315.864
L338.861 314.664
L341.302 307.512
L343.744 305.592
L346.185 304.344
L348.626 303.432
L351.068 302.4
L353.509 293.664
L355.95 272.184
L358.391 247.752
L360.832 255.552
L363.274 261.144
L365.715 261.888
L368.156 266.184
L370.597 293.976
L373.039 287.04
L375.48 293.808
L377.921 285.936
L380.363 275.928
L382.804 284.304
L385.245 285.624
L387.686 289.8
L390.127 292.344
L392.569 288.912
L395.01 279.696
L397.451 282.648
L399.892 297.912
L402.334 286.656
L404.775 259.872
L407.216 271.584
L409.658 269.976
L412.099 257.856
L414.54 235.752
L416.981 203.328
L419.422 180.744
L421.864 164.352
L424.305 98.304
L426.746 188.76
L429.188 144.696
L431.629 94.248
L434.07 97.152
L436.511 93.624
L438.953 114.264
L438.953 114.264" style="fill:none;stroke:#0000ff;stroke-linecap:square;"/>
   </g>
   <g id="line2d_2">
    <path clip-path="url(#pe2810ebbdc)" d="
M351.068 290.304
L353.509 277.968
L355.95 253.032
L358.391 241.632
L360.832 238.44
L363.274 249.72
L365.715 250.536
L368.156 263.16
L370.597 292.656
L373.039 281.088
L375.48 290.304
L377.921 280.896
L380.363 270.024
L382.804 279.624
L385.245 279.504
L387.686 284.112
L390.127 286.008
L392.569 282.792
L395.01 273.936
L397.451 280.536
L399.892 294.336
L402.334 280.728
L404.775 257.904
L407.216 272.064
L412.099 256.2
L414.54 232.776
L416.981 196.992
L419.422 178.776
L421.864 152.112
L424.305 97.488
L426.746 172.56
L429.188 132.84
L431.629 61.368
L434.07 62.568
L436.511 75.744
L438.953 91.608
L438.953 91.608" style="fill:none;stroke:#008000;stroke-linecap:square;"/>
   </g>
   <g id="line2d_3">
    <path clip-path="url(#pe2810ebbdc)" d="
M270.506 321.48
L272.948 321.312
L275.389 319.44
L277.83 319.224
L280.271 319.728
L282.712 319.896
L287.595 319.896
L290.036 319.368
L299.801 319.44
L302.243 319.008
L304.684 319.008
L307.125 319.44
L309.566 319.68
L331.538 319.68
L333.979 318.624
L336.42 318.048
L338.861 316.104
L341.302 296.208
L343.744 296.328
L346.185 293.28
L348.626 290.592
L351.068 290.352
L353.509 248.136
L355.95 235.608
L358.391 237.768
L360.832 244.872
L363.274 253.08
L363.274 253.08" style="fill:none;stroke:#ff0000;stroke-linecap:square;"/>
   </g>
   <g id="line2d_4">
    <path clip-path="url(#pe2810ebbdc)" d="
M373.039 279.528
L375.48 288.216
L377.921 280.248
L380.363 266.976
L382.804 275.904
L385.245 277.632
L387.686 283.176
L390.127 285.936
L392.569 283.152
L395.01 274.464
L397.451 278.136
L399.892 293.376
L402.334 281.04
L404.775 255.216
L407.216 265.296
L409.658 264.024
L412.099 254.76
L414.54 232.176
L416.981 193.032
L419.422 167.616
L421.864 150.144
L424.305 91.344
L426.746 175.824
L429.188 132.936
L431.629 56.976
L434.07 56.088
L436.511 63.456
L438.953 86.472
L438.953 86.472" style="fill:none;stroke:#00bfbf;stroke-linecap:square;"/>
   </g>
   <g id="line2d_5">
    <path clip-path="url(#pe2810ebbdc)" d="
M373.039 279.528
L375.48 288.216
L377.921 280.248
L380.363 266.976
L382.804 275.904
L385.245 277.632
L387.686 283.176
L390.127 285.936
L392.569 283.152
L395.01 274.464
L397.451 278.136
L399.892 293.376
L402.334 281.04
L404.775 255.216
L407.216 265.296
L409.658 264.024
L412.099 254.76
L414.54 232.176
L416.981 193.032
L419.422 167.616
L421.864 150.144
L424.305 91.344
L426.746 175.824
L429.188 132.936
L431.629 56.976
L434.07 56.088
L436.511 63.456
L438.953 86.472
L438.953 86.472" style="fill:none;stroke:#bf00bf;stroke-linecap:square;"/>
   </g>
   <g id="line2d_6">
    <path clip-path="url(#pe2810ebbdc)" d="
M326.655 317.04
L329.096 317.28
L331.538 316.896
L333.979 316.392
L336.42 316.272
L338.861 314.208
L341.302 293.952
L343.744 290.568
L346.185 291.648
L348.626 289.128
L351.068 289.032
L353.509 271.992
L355.95 242.664
L358.391 235.08
L360.832 243.48
L363.274 253.68
L365.715 254.688
L368.156 259.224
L370.597 290.4
L373.039 280.488
L375.48 289.056
L380.363 271.776
L382.804 279.12
L385.245 280.32
L387.686 285.264
L390.127 286.776
L392.569 282.864
L395.01 274.464
L397.451 279.528
L399.892 295.104
L402.334 282.576
L404.775 257.52
L407.216 271.2
L409.658 267.096
L412.099 257.496
L414.54 237.84
L416.981 206.736
L419.422 182.352
L421.864 163.104
L424.305 101.352
L426.746 181.992
L429.188 141.936
L431.629 77.688
L434.07 81.384
L436.511 88.536
L438.953 109.056
L438.953 109.056" style="fill:none;stroke:#bfbf00;stroke-linecap:square;"/>
   </g>
   <g id="line2d_7">
    <path clip-path="url(#pe2810ebbdc)" d="
M326.655 316.296
L329.096 315.912
L331.538 315.696
L333.979 315.168
L336.42 315.192
L338.861 313.992
L341.302 306.768
L343.744 303.864
L346.185 302.784
L348.626 301.08
L351.068 298.536
L353.509 289.752
L358.391 241.608
L360.832 249.072
L363.274 254.712
L365.715 255.528
L368.156 260.016
L370.597 288.432
L373.039 281.376
L375.48 288.624
L377.921 281.112
L380.363 269.784
L382.804 277.608
L385.245 279.288
L387.686 283.992
L390.127 286.392
L392.569 282.408
L395.01 274.152
L397.451 276.936
L399.892 292.368
L402.334 281.04
L404.775 254.136
L407.216 265.608
L409.658 264.84
L412.099 252.432
L414.54 230.472
L416.981 196.944
L419.422 173.712
L421.864 156.84
L424.305 87.672
L426.746 181.224
L429.188 136.776
L431.629 82.296
L434.07 82.272
L436.511 77.016
L438.953 98.28
L438.953 98.28" style="fill:none;stroke:#000000;stroke-linecap:square;"/>
   </g>
   <g id="line2d_8">
    <path clip-path="url(#pe2810ebbdc)" d="
M355.95 237.96
L358.391 241.704
L360.832 247.776
L363.274 255.672
L368.156 260.376
L370.597 292.656
L373.039 283.296
L375.48 291.936
L377.921 286.128
L380.363 274.248
L382.804 284.136
L385.245 282.864
L387.686 288.216
L390.127 288.408
L392.569 285.288
L395.01 279.504
L397.451 280.56
L399.892 294.984
L402.334 283.008
L404.775 261.384
L407.216 269.496
L409.658 267.048
L412.099 259.848
L414.54 243.696
L416.981 205.92
L419.422 176.568
L421.864 159.912
L424.305 98.928
L426.746 175.776
L429.188 136.656
L431.629 69.528
L434.07 62.592
L436.511 70.968
L438.953 92.016
L438.953 92.016" style="fill:none;stroke:#0000ff;stroke-linecap:square;"/>
   </g>
   <g id="matplotlib.axis_1">
    <g id="xtick_1">
     <g id="line2d_9">
      <path clip-path="url(#pe2810ebbdc)" d="
M63 324
L63 36" style="fill:none;stroke:#000000;stroke-dasharray:1.000000,3.000000;stroke-dashoffset:0.0;stroke-width:0.5;"/>
     </g>
     <g id="line2d_10">
      <defs>
       <path d="
M0 0
L0 -4" id="m93b0483c22" style="stroke:#000000;stroke-width:0.5;"/>
      </defs>
      <g>
       <use style="stroke:#000000;stroke-width:0.5;" x="63.0" xlink:href="#m93b0483c22" y="324.0"/>
      </g>
     </g>
     <g id="line2d_11">
      <defs>
       <path d="
M0 0
L0 4" id="m741efc42ff" style="stroke:#000000;stroke-width:0.5;"/>
      </defs>
      <g>
       <use style="stroke:#000000;stroke-width:0.5;" x="63.0" xlink:href="#m741efc42ff" y="36.0"/>
      </g>
     </g>
     <g id="text_1">
      <!-- 1860 -->
      <defs>
       <path d="
M12.4062 8.29688
L28.5156 8.29688
L28.5156 63.9219
L10.9844 60.4062
L10.9844 69.3906
L28.4219 72.9062
L38.2812 72.9062
L38.2812 8.29688
L54.3906 8.29688
L54.3906 0
L12.4062 0
z
" id="DejaVuSans-31"/>
       <path d="
M31.7812 34.625
Q24.75 34.625 20.7188 30.8594
Q16.7031 27.0938 16.7031 20.5156
Q16.7031 13.9219 20.7188 10.1562
Q24.75 6.39062 31.7812 6.39062
Q38.8125 6.39062 42.8594 10.1719
Q46.9219 13.9688 46.9219 20.5156
Q46.9219 27.0938 42.8906 30.8594
Q38.875 34.625 31.7812 34.625
M21.9219 38.8125
Q15.5781 40.375 12.0312 44.7188
Q8.5 49.0781 8.5 55.3281
Q8.5 64.0625 14.7188 69.1406
Q20.9531 74.2188 31.7812 74.2188
Q42.6719 74.2188 48.875 69.1406
Q55.0781 64.0625 55.0781 55.3281
Q55.0781 49.0781 51.5312 44.7188
Q48 40.375 41.7031 38.8125
Q48.8281 37.1562 52.7969 32.3125
Q56.7812 27.4844 56.7812 20.5156
Q56.7812 9.90625 50.3125 4.23438
Q43.8438 -1.42188 31.7812 -1.42188
Q19.7344 -1.42188 13.25 4.23438
Q6.78125 9.90625 6.78125 20.5156
Q6.78125 27.4844 10.7812 32.3125
Q14.7969 37.1562 21.9219 38.8125
M18.3125 54.3906
Q18.3125 48.7344 21.8438 45.5625
Q25.3906 42.3906 31.7812 42.3906
Q38.1406 42.3906 41.7188 45.5625
Q45.3125 48.7344 45.3125 54.3906
Q45.3125 60.0625 41.7188 63.2344
Q38.1406 66.4062 31.7812 66.4062
Q25.3906 66.4062 21.8438 63.2344
Q18.3125 60.0625 18.3125 54.3906" id="DejaVuSans-38"/>
       <path d="
M31.7812 66.4062
Q24.1719 66.4062 20.3281 58.9062
Q16.5 51.4219 16.5 36.375
Q16.5 21.3906 20.3281 13.8906
Q24.1719 6.39062 31.7812 6.39062
Q39.4531 6.39062 43.2812 13.8906
Q47.125 21.3906 47.125 36.375
Q47.125 51.4219 43.2812 58.9062
Q39.4531 66.4062 31.7812 66.4062
M31.7812 74.2188
Q44.0469 74.2188 50.5156 64.5156
Q56.9844 54.8281 56.9844 36.375
Q56.9844 17.9688 50.5156 8.26562
Q44.0469 -1.42188 31.7812 -1.42188
Q19.5312 -1.42188 13.0625 8.26562
Q6.59375 17.9688 6.59375 36.375
Q6.59375 54.8281 13.0625 64.5156
Q19.5312 74.2188 31.7812 74.2188" id="DejaVuSans-30"/>
       <path d="
M33.0156 40.375
Q26.375 40.375 22.4844 35.8281
Q18.6094 31.2969 18.6094 23.3906
Q18.6094 15.5312 22.4844 10.9531
Q26.375 6.39062 33.0156 6.39062
Q39.6562 6.39062 43.5312 10.9531
Q47.4062 15.5312 47.4062 23.3906
Q47.4062 31.2969 43.5312 35.8281
Q39.6562 40.375 33.0156 40.375
M52.5938 71.2969
L52.5938 62.3125
Q48.875 64.0625 45.0938 64.9844
Q41.3125 65.9219 37.5938 65.9219
Q27.8281 65.9219 22.6719 59.3281
Q17.5312 52.7344 16.7969 39.4062
Q19.6719 43.6562 24.0156 45.9219
Q28.375 48.1875 33.5938 48.1875
Q44.5781 48.1875 50.9531 41.5156
Q57.3281 34.8594 57.3281 23.3906
Q57.3281 12.1562 50.6875 5.35938
Q44.0469 -1.42188 33.0156 -1.42188
Q20.3594 -1.42188 13.6719 8.26562
Q6.98438 17.9688 6.98438 36.375
Q6.98438 53.6562 15.1875 63.9375
Q23.3906 74.2188 37.2031 74.2188
Q40.9219 74.2188 44.7031 73.4844
Q48.4844 72.75 52.5938 71.2969" id="DejaVuSans-36"/>
      </defs>
      <g transform="translate(48.7875 337.118125)scale(0.12 -0.12)">
       <use xlink:href="#DejaVuSans-31"/>
       <use x="63.623046875" xlink:href="#DejaVuSans-38"/>
       <use x="127.24609375" xlink:href="#DejaVuSans-36"/>
       <use x="190.869140625" xlink:href="#DejaVuSans-30"/>
      </g>
     </g>
    </g>
    <g id="xtick_2">
     <g id="line2d_12">
      <path clip-path="url(#pe2810ebbdc)" d="
M111.825 324
L111.825 36" style="fill:none;stroke:#000000;stroke-dasharray:1.000000,3.000000;stroke-dashoffset:0.0;stroke-width:0.5;"/>
     </g>
     <g id="line2d_13">
      <g>
       <use style="stroke:#000000;stroke-width:0.5;" x="111.825" xlink:href="#m93b0483c22" y="324.0"/>
      </g>
     </g>
     <g id="line2d_14">
      <g>
       <use style="stroke:#000000;stroke-width:0.5;" x="111.825" xlink:href="#m741efc42ff" y="36.0"/>
      </g>
     </g>
     <g id="text_2">
      <!-- 1880 -->
      <g transform="translate(97.6125 337.118125)scale(0.12 -0.12)">
       <use xlink:href="#DejaVuSans-31"/>
       <use x="63.623046875" xlink:href="#DejaVuSans-38"/>
       <use x="127.24609375" xlink:href="#DejaVuSans-38"/>
       <use x="190.869140625" xlink:href="#DejaVuSans-30"/>
      </g>
     </g>
    </g>
    <g id="xtick_3">
     <g id="line2d_15">
      <path clip-path="url(#pe2810ebbdc)" d="
M160.65 324
L160.65 36" style="fill:none;stroke:#000000;stroke-dasharray:1.000000,3.000000;stroke-dashoffset:0.0;stroke-width:0.5;"/>
     </g>
     <g id="line2d_16">
      <g>
       <use style="stroke:#000000;stroke-width:0.5;" x="160.65" xlink:href="#m93b0483c22" y="324.0"/>
      </g>
     </g>
     <g id="line2d_17">
      <g>
       <use style="stroke:#000000;stroke-width:0.5;" x="160.65" xlink:href="#m741efc42ff" y="36.0"/>
      </g>
     </g>
     <g id="text_3">
      <!-- 1900 -->
      <defs>
       <path d="
M10.9844 1.51562
L10.9844 10.5
Q14.7031 8.73438 18.5 7.8125
Q22.3125 6.89062 25.9844 6.89062
Q35.75 6.89062 40.8906 13.4531
Q46.0469 20.0156 46.7812 33.4062
Q43.9531 29.2031 39.5938 26.9531
Q35.25 24.7031 29.9844 24.7031
Q19.0469 24.7031 12.6719 31.3125
Q6.29688 37.9375 6.29688 49.4219
Q6.29688 60.6406 12.9375 67.4219
Q19.5781 74.2188 30.6094 74.2188
Q43.2656 74.2188 49.9219 64.5156
Q56.5938 54.8281 56.5938 36.375
Q56.5938 19.1406 48.4062 8.85938
Q40.2344 -1.42188 26.4219 -1.42188
Q22.7031 -1.42188 18.8906 -0.6875
Q15.0938 0.046875 10.9844 1.51562
M30.6094 32.4219
Q37.25 32.4219 41.125 36.9531
Q45.0156 41.5 45.0156 49.4219
Q45.0156 57.2812 41.125 61.8438
Q37.25 66.4062 30.6094 66.4062
Q23.9688 66.4062 20.0938 61.8438
Q16.2188 57.2812 16.2188 49.4219
Q16.2188 41.5 20.0938 36.9531
Q23.9688 32.4219 30.6094 32.4219" id="DejaVuSans-39"/>
      </defs>
      <g transform="translate(146.4375 337.118125)scale(0.12 -0.12)">
       <use xlink:href="#DejaVuSans-31"/>
       <use x="63.623046875" xlink:href="#DejaVuSans-39"/>
       <use x="127.24609375" xlink:href="#DejaVuSans-30"/>
       <use x="190.869140625" xlink:href="#DejaVuSans-30"/>
      </g>
     </g>
    </g>
    <g id="xtick_4">
     <g id="line2d_18">
      <path clip-path="url(#pe2810ebbdc)" d="
M209.475 324
L209.475 36" style="fill:none;stroke:#000000;stroke-dasharray:1.000000,3.000000;stroke-dashoffset:0.0;stroke-width:0.5;"/>
     </g>
     <g id="line2d_19">
      <g>
       <use style="stroke:#000000;stroke-width:0.5;" x="209.475" xlink:href="#m93b0483c22" y="324.0"/>
      </g>
     </g>
     <g id="line2d_20">
      <g>
       <use style="stroke:#000000;stroke-width:0.5;" x="209.475" xlink:href="#m741efc42ff" y="36.0"/>
      </g>
     </g>
     <g id="text_4">
      <!-- 1920 -->
      <defs>
       <path d="
M19.1875 8.29688
L53.6094 8.29688
L53.6094 0
L7.32812 0
L7.32812 8.29688
Q12.9375 14.1094 22.625 23.8906
Q32.3281 33.6875 34.8125 36.5312
Q39.5469 41.8438 41.4219 45.5312
Q43.3125 49.2188 43.3125 52.7812
Q43.3125 58.5938 39.2344 62.25
Q35.1562 65.9219 28.6094 65.9219
Q23.9688 65.9219 18.8125 64.3125
Q13.6719 62.7031 7.8125 59.4219
L7.8125 69.3906
Q13.7656 71.7812 18.9375 73
Q24.125 74.2188 28.4219 74.2188
Q39.75 74.2188 46.4844 68.5469
Q53.2188 62.8906 53.2188 53.4219
Q53.2188 48.9219 51.5312 44.8906
Q49.8594 40.875 45.4062 35.4062
Q44.1875 33.9844 37.6406 27.2188
Q31.1094 20.4531 19.1875 8.29688" id="DejaVuSans-32"/>
      </defs>
      <g transform="translate(195.2625 337.118125)scale(0.12 -0.12)">
       <use xlink:href="#DejaVuSans-31"/>
       <use x="63.623046875" xlink:href="#DejaVuSans-39"/>
       <use x="127.24609375" xlink:href="#DejaVuSans-32"/>
       <use x="190.869140625" xlink:href="#DejaVuSans-30"/>
      </g>
     </g>
    </g>
    <g id="xtick_5">
     <g id="line2d_21">
      <path clip-path="url(#pe2810ebbdc)" d="
M258.3 324
L258.3 36" style="fill:none;stroke:#000000;stroke-dasharray:1.000000,3.000000;stroke-dashoffset:0.0;stroke-width:0.5;"/>
     </g>
     <g id="line2d_22">
      <g>
       <use style="stroke:#000000;stroke-width:0.5;" x="258.3" xlink:href="#m93b0483c22" y="324.0"/>
      </g>
     </g>
     <g id="line2d_23">
      <g>
       <use style="stroke:#000000;stroke-width:0.5;" x="258.3" xlink:href="#m741efc42ff" y="36.0"/>
      </g>
     </g>
     <g id="text_5">
      <!-- 1940 -->
      <defs>
       <path d="
M37.7969 64.3125
L12.8906 25.3906
L37.7969 25.3906
z

M35.2031 72.9062
L47.6094 72.9062
L47.6094 25.3906
L58.0156 25.3906
L58.0156 17.1875
L47.6094 17.1875
L47.6094 0
L37.7969 0
L37.7969 17.1875
L4.89062 17.1875
L4.89062 26.7031
z
" id="DejaVuSans-34"/>
      </defs>
      <g transform="translate(244.0875 337.118125)scale(0.12 -0.12)">
       <use xlink:href="#DejaVuSans-31"/>
       <use x="63.623046875" xlink:href="#DejaVuSans-39"/>
       <use x="127.24609375" xlink:href="#DejaVuSans-34"/>
       <use x="190.869140625" xlink:href="#DejaVuSans-30"/>
      </g>
     </g>
    </g>
    <g id="xtick_6">
     <g id="line2d_24">
      <path clip-path="url(#pe2810ebbdc)" d="
M307.125 324
L307.125 36" style="fill:none;stroke:#000000;stroke-dasharray:1.000000,3.000000;stroke-dashoffset:0.0;stroke-width:0.5;"/>
     </g>
     <g id="line2d_25">
      <g>
       <use style="stroke:#000000;stroke-width:0.5;" x="307.125" xlink:href="#m93b0483c22" y="324.0"/>
      </g>
     </g>
     <g id="line2d_26">
      <g>
       <use style="stroke:#000000;stroke-width:0.5;" x="307.125" xlink:href="#m741efc42ff" y="36.0"/>
      </g>
     </g>
     <g id="text_6">
      <!-- 1960 -->
      <g transform="translate(292.9125 337.118125)scale(0.12 -0.12)">
       <use xlink:href="#DejaVuSans-31"/>
       <use x="63.623046875" xlink:href="#DejaVuSans-39"/>
       <use x="127.24609375" xlink:href="#DejaVuSans-36"/>
       <use x="190.869140625" xlink:href="#DejaVuSans-30"/>
      </g>
     </g>
    </g>
    <g id="xtick_7">
     <g id="line2d_27">
      <path clip-path="url(#pe2810ebbdc)" d="
M355.95 324
L355.95 36" style="fill:none;stroke:#000000;stroke-dasharray:1.000000,3.000000;stroke-dashoffset:0.0;stroke-width:0.5;"/>
     </g>
     <g id="line2d_28">
      <g>
       <use style="stroke:#000000;stroke-width:0.5;" x="355.95" xlink:href="#m93b0483c22" y="324.0"/>
      </g>
     </g>
     <g id="line2d_29">
      <g>
       <use style="stroke:#000000;stroke-width:0.5;" x="355.95" xlink:href="#m741efc42ff" y="36.0"/>
      </g>
     </g>
     <g id="text_7">
      <!-- 1980 -->
      <g transform="translate(341.7375 337.118125)scale(0.12 -0.12)">
       <use xlink:href="#DejaVuSans-31"/>
       <use x="63.623046875" xlink:href="#DejaVuSans-39"/>
       <use x="127.24609375" xlink:href="#DejaVuSans-38"/>
       <use x="190.869140625" xlink:href="#DejaVuSans-30"/>
      </g>
     </g>
    </g>
    <g id="xtick_8">
     <g id="line2d_30">
      <path clip-path="url(#pe2810ebbdc)" d="
M404.775 324
L404.775 36" style="fill:none;stroke:#000000;stroke-dasharray:1.000000,3.000000;stroke-dashoffset:0.0;stroke-width:0.5;"/>
     </g>
     <g id="line2d_31">
      <g>
       <use style="stroke:#000000;stroke-width:0.5;" x="404.775" xlink:href="#m93b0483c22" y="324.0"/>
      </g>
     </g>
     <g id="line2d_32">
      <g>
       <use style="stroke:#000000;stroke-width:0.5;" x="404.775" xlink:href="#m741efc42ff" y="36.0"/>
      </g>
     </g>
     <g id="text_8">
      <!-- 2000 -->
      <g transform="translate(390.343125 337.118125)scale(0.12 -0.12)">
       <use xlink:href="#DejaVuSans-32"/>
       <use x="63.623046875" xlink:href="#DejaVuSans-30"/>
       <use x="127.24609375" xlink:href="#DejaVuSans-30"/>
       <use x="190.869140625" xlink:href="#DejaVuSans-30"/>
      </g>
     </g>
    </g>
    <g id="xtick_9">
     <g id="line2d_33">
      <path clip-path="url(#pe2810ebbdc)" d="
M453.6 324
L453.6 36" style="fill:none;stroke:#000000;stroke-dasharray:1.000000,3.000000;stroke-dashoffset:0.0;stroke-width:0.5;"/>
     </g>
     <g id="line2d_34">
      <g>
       <use style="stroke:#000000;stroke-width:0.5;" x="453.6" xlink:href="#m93b0483c22" y="324.0"/>
      </g>
     </g>
     <g id="line2d_35">
      <g>
       <use style="stroke:#000000;stroke-width:0.5;" x="453.6" xlink:href="#m741efc42ff" y="36.0"/>
      </g>
     </g>
     <g id="text_9">
      <!-- 2020 -->
      <g transform="translate(439.168125 337.118125)scale(0.12 -0.12)">
       <use xlink:href="#DejaVuSans-32"/>
       <use x="63.623046875" xlink:href="#DejaVuSans-30"/>
       <use x="127.24609375" xlink:href="#DejaVuSans-32"/>
       <use x="190.869140625" xlink:href="#DejaVuSans-30"/>
      </g>
     </g>
    </g>
    <g id="text_10">
     <!-- Date (years) -->
     <defs>
      <path d="
M8.01562 75.875
L15.8281 75.875
Q23.1406 64.3594 26.7812 53.3125
Q30.4219 42.2812 30.4219 31.3906
Q30.4219 20.4531 26.7812 9.375
Q23.1406 -1.70312 15.8281 -13.1875
L8.01562 -13.1875
Q14.5 -2 17.7031 9.0625
Q20.9062 20.125 20.9062 31.3906
Q20.9062 42.6719 17.7031 53.6562
Q14.5 64.6562 8.01562 75.875" id="DejaVuSans-29"/>
      <path d="
M41.1094 46.2969
Q39.5938 47.1719 37.8125 47.5781
Q36.0312 48 33.8906 48
Q26.2656 48 22.1875 43.0469
Q18.1094 38.0938 18.1094 28.8125
L18.1094 0
L9.07812 0
L9.07812 54.6875
L18.1094 54.6875
L18.1094 46.1875
Q20.9531 51.1719 25.4844 53.5781
Q30.0312 56 36.5312 56
Q37.4531 56 38.5781 55.875
Q39.7031 55.7656 41.0625 55.5156
z
" id="DejaVuSans-72"/>
      <path d="
M19.6719 64.7969
L19.6719 8.10938
L31.5938 8.10938
Q46.6875 8.10938 53.6875 14.9375
Q60.6875 21.7812 60.6875 36.5312
Q60.6875 51.1719 53.6875 57.9844
Q46.6875 64.7969 31.5938 64.7969
z

M9.8125 72.9062
L30.0781 72.9062
Q51.2656 72.9062 61.1719 64.0938
Q71.0938 55.2812 71.0938 36.5312
Q71.0938 17.6719 61.125 8.82812
Q51.1719 0 30.0781 0
L9.8125 0
z
" id="DejaVuSans-44"/>
      <path id="DejaVuSans-20"/>
      <path d="
M32.1719 -5.07812
Q28.375 -14.8438 24.75 -17.8125
Q21.1406 -20.7969 15.0938 -20.7969
L7.90625 -20.7969
L7.90625 -13.2812
L13.1875 -13.2812
Q16.8906 -13.2812 18.9375 -11.5156
Q21 -9.76562 23.4844 -3.21875
L25.0938 0.875
L2.98438 54.6875
L12.5 54.6875
L29.5938 11.9219
L46.6875 54.6875
L56.2031 54.6875
z
" id="DejaVuSans-79"/>
      <path d="
M18.3125 70.2188
L18.3125 54.6875
L36.8125 54.6875
L36.8125 47.7031
L18.3125 47.7031
L18.3125 18.0156
Q18.3125 11.3281 20.1406 9.42188
Q21.9688 7.51562 27.5938 7.51562
L36.8125 7.51562
L36.8125 0
L27.5938 0
Q17.1875 0 13.2344 3.875
Q9.28125 7.76562 9.28125 18.0156
L9.28125 47.7031
L2.6875 47.7031
L2.6875 54.6875
L9.28125 54.6875
L9.28125 70.2188
z
" id="DejaVuSans-74"/>
      <path d="
M31 75.875
Q24.4688 64.6562 21.2812 53.6562
Q18.1094 42.6719 18.1094 31.3906
Q18.1094 20.125 21.3125 9.0625
Q24.5156 -2 31 -13.1875
L23.1875 -13.1875
Q15.875 -1.70312 12.2344 9.375
Q8.59375 20.4531 8.59375 31.3906
Q8.59375 42.2812 12.2031 53.3125
Q15.8281 64.3594 23.1875 75.875
z
" id="DejaVuSans-28"/>
      <path d="
M56.2031 29.5938
L56.2031 25.2031
L14.8906 25.2031
Q15.4844 15.9219 20.4844 11.0625
Q25.4844 6.20312 34.4219 6.20312
Q39.5938 6.20312 44.4531 7.46875
Q49.3125 8.73438 54.1094 11.2812
L54.1094 2.78125
Q49.2656 0.734375 44.1875 -0.34375
Q39.1094 -1.42188 33.8906 -1.42188
Q20.7969 -1.42188 13.1562 6.1875
Q5.51562 13.8125 5.51562 26.8125
Q5.51562 40.2344 12.7656 48.1094
Q20.0156 56 32.3281 56
Q43.3594 56 49.7812 48.8906
Q56.2031 41.7969 56.2031 29.5938
M47.2188 32.2344
Q47.125 39.5938 43.0938 43.9844
Q39.0625 48.3906 32.4219 48.3906
Q24.9062 48.3906 20.3906 44.1406
Q15.875 39.8906 15.1875 32.1719
z
" id="DejaVuSans-65"/>
      <path d="
M44.2812 53.0781
L44.2812 44.5781
Q40.4844 46.5312 36.375 47.5
Q32.2812 48.4844 27.875 48.4844
Q21.1875 48.4844 17.8438 46.4375
Q14.5 44.3906 14.5 40.2812
Q14.5 37.1562 16.8906 35.375
Q19.2812 33.5938 26.5156 31.9844
L29.5938 31.2969
Q39.1562 29.25 43.1875 25.5156
Q47.2188 21.7812 47.2188 15.0938
Q47.2188 7.46875 41.1875 3.01562
Q35.1562 -1.42188 24.6094 -1.42188
Q20.2188 -1.42188 15.4531 -0.5625
Q10.6875 0.296875 5.42188 2
L5.42188 11.2812
Q10.4062 8.6875 15.2344 7.39062
Q20.0625 6.10938 24.8125 6.10938
Q31.1562 6.10938 34.5625 8.28125
Q37.9844 10.4531 37.9844 14.4062
Q37.9844 18.0625 35.5156 20.0156
Q33.0625 21.9688 24.7031 23.7812
L21.5781 24.5156
Q13.2344 26.2656 9.51562 29.9062
Q5.8125 33.5469 5.8125 39.8906
Q5.8125 47.6094 11.2812 51.7969
Q16.75 56 26.8125 56
Q31.7812 56 36.1719 55.2656
Q40.5781 54.5469 44.2812 53.0781" id="DejaVuSans-73"/>
      <path d="
M34.2812 27.4844
Q23.3906 27.4844 19.1875 25
Q14.9844 22.5156 14.9844 16.5
Q14.9844 11.7188 18.1406 8.90625
Q21.2969 6.10938 26.7031 6.10938
Q34.1875 6.10938 38.7031 11.4062
Q43.2188 16.7031 43.2188 25.4844
L43.2188 27.4844
z

M52.2031 31.2031
L52.2031 0
L43.2188 0
L43.2188 8.29688
Q40.1406 3.32812 35.5469 0.953125
Q30.9531 -1.42188 24.3125 -1.42188
Q15.9219 -1.42188 10.9531 3.29688
Q6 8.01562 6 15.9219
Q6 25.1406 12.1719 29.8281
Q18.3594 34.5156 30.6094 34.5156
L43.2188 34.5156
L43.2188 35.4062
Q43.2188 41.6094 39.1406 45
Q35.0625 48.3906 27.6875 48.3906
Q23 48.3906 18.5469 47.2656
Q14.1094 46.1406 10.0156 43.8906
L10.0156 52.2031
Q14.9375 54.1094 19.5781 55.0469
Q24.2188 56 28.6094 56
Q40.4844 56 46.3438 49.8438
Q52.2031 43.7031 52.2031 31.2031" id="DejaVuSans-61"/>
     </defs>
     <g transform="translate(221.37375 353.731875)scale(0.12 -0.12)">
      <use xlink:href="#DejaVuSans-44"/>
      <use x="77.001953125" xlink:href="#DejaVuSans-61"/>
      <use x="138.28125" xlink:href="#DejaVuSans-74"/>
      <use x="177.490234375" xlink:href="#DejaVuSans-65"/>
      <use x="239.013671875" xlink:href="#DejaVuSans-20"/>
      <use x="270.80078125" xlink:href="#DejaVuSans-28"/>
      <use x="309.814453125" xlink:href="#DejaVuSans-79"/>
      <use x="368.994140625" xlink:href="#DejaVuSans-65"/>
      <use x="430.517578125" xlink:href="#DejaVuSans-61"/>
      <use x="491.796875" xlink:href="#DejaVuSans-72"/>
      <use x="532.91015625" xlink:href="#DejaVuSans-73"/>
      <use x="585.009765625" xlink:href="#DejaVuSans-29"/>
     </g>
    </g>
   </g>
   <g id="matplotlib.axis_2">
    <g id="ytick_1">
     <g id="line2d_36">
      <path clip-path="url(#pe2810ebbdc)" d="
M63 324
L453.6 324" style="fill:none;stroke:#000000;stroke-dasharray:1.000000,3.000000;stroke-dashoffset:0.0;stroke-width:0.5;"/>
     </g>
     <g id="line2d_37">
      <defs>
       <path d="
M0 0
L4 0" id="m728421d6d4" style="stroke:#000000;stroke-width:0.5;"/>
      </defs>
      <g>
       <use style="stroke:#000000;stroke-width:0.5;" x="63.0" xlink:href="#m728421d6d4" y="324.0"/>
      </g>
     </g>
     <g id="line2d_38">
      <defs>
       <path d="
M0 0
L-4 0" id="mcb0005524f" style="stroke:#000000;stroke-width:0.5;"/>
      </defs>
      <g>
       <use style="stroke:#000000;stroke-width:0.5;" x="453.6" xlink:href="#mcb0005524f" y="324.0"/>
      </g>
     </g>
     <g id="text_11">
      <!-- 0 -->
      <g transform="translate(52.953125 327.31125)scale(0.12 -0.12)">
       <use xlink:href="#DejaVuSans-30"/>
      </g>
     </g>
    </g>
    <g id="ytick_2">
     <g id="line2d_39">
      <path clip-path="url(#pe2810ebbdc)" d="
M63 276
L453.6 276" style="fill:none;stroke:#000000;stroke-dasharray:1.000000,3.000000;stroke-dashoffset:0.0;stroke-width:0.5;"/>
     </g>
     <g id="line2d_40">
      <g>
       <use style="stroke:#000000;stroke-width:0.5;" x="63.0" xlink:href="#m728421d6d4" y="276.0"/>
      </g>
     </g>
     <g id="line2d_41">
      <g>
       <use style="stroke:#000000;stroke-width:0.5;" x="453.6" xlink:href="#mcb0005524f" y="276.0"/>
      </g>
     </g>
     <g id="text_12">
      <!-- 20 -->
      <g transform="translate(45.40625 279.31125)scale(0.12 -0.12)">
       <use xlink:href="#DejaVuSans-32"/>
       <use x="63.623046875" xlink:href="#DejaVuSans-30"/>
      </g>
     </g>
    </g>
    <g id="ytick_3">
     <g id="line2d_42">
      <path clip-path="url(#pe2810ebbdc)" d="
M63 228
L453.6 228" style="fill:none;stroke:#000000;stroke-dasharray:1.000000,3.000000;stroke-dashoffset:0.0;stroke-width:0.5;"/>
     </g>
     <g id="line2d_43">
      <g>
       <use style="stroke:#000000;stroke-width:0.5;" x="63.0" xlink:href="#m728421d6d4" y="228.0"/>
      </g>
     </g>
     <g id="line2d_44">
      <g>
       <use style="stroke:#000000;stroke-width:0.5;" x="453.6" xlink:href="#mcb0005524f" y="228.0"/>
      </g>
     </g>
     <g id="text_13">
      <!-- 40 -->
      <g transform="translate(45.11375 231.31125)scale(0.12 -0.12)">
       <use xlink:href="#DejaVuSans-34"/>
       <use x="63.623046875" xlink:href="#DejaVuSans-30"/>
      </g>
     </g>
    </g>
    <g id="ytick_4">
     <g id="line2d_45">
      <path clip-path="url(#pe2810ebbdc)" d="
M63 180
L453.6 180" style="fill:none;stroke:#000000;stroke-dasharray:1.000000,3.000000;stroke-dashoffset:0.0;stroke-width:0.5;"/>
     </g>
     <g id="line2d_46">
      <g>
       <use style="stroke:#000000;stroke-width:0.5;" x="63.0" xlink:href="#m728421d6d4" y="180.0"/>
      </g>
     </g>
     <g id="line2d_47">
      <g>
       <use style="stroke:#000000;stroke-width:0.5;" x="453.6" xlink:href="#mcb0005524f" y="180.0"/>
      </g>
     </g>
     <g id="text_14">
      <!-- 60 -->
      <g transform="translate(45.365 183.31125)scale(0.12 -0.12)">
       <use xlink:href="#DejaVuSans-36"/>
       <use x="63.623046875" xlink:href="#DejaVuSans-30"/>
      </g>
     </g>
    </g>
    <g id="ytick_5">
     <g id="line2d_48">
      <path clip-path="url(#pe2810ebbdc)" d="
M63 132
L453.6 132" style="fill:none;stroke:#000000;stroke-dasharray:1.000000,3.000000;stroke-dashoffset:0.0;stroke-width:0.5;"/>
     </g>
     <g id="line2d_49">
      <g>
       <use style="stroke:#000000;stroke-width:0.5;" x="63.0" xlink:href="#m728421d6d4" y="132.0"/>
      </g>
     </g>
     <g id="line2d_50">
      <g>
       <use style="stroke:#000000;stroke-width:0.5;" x="453.6" xlink:href="#mcb0005524f" y="132.0"/>
      </g>
     </g>
     <g id="text_15">
      <!-- 80 -->
      <g transform="translate(45.340625 135.31125)scale(0.12 -0.12)">
       <use xlink:href="#DejaVuSans-38"/>
       <use x="63.623046875" xlink:href="#DejaVuSans-30"/>
      </g>
     </g>
    </g>
    <g id="ytick_6">
     <g id="line2d_51">
      <path clip-path="url(#pe2810ebbdc)" d="
M63 84
L453.6 84" style="fill:none;stroke:#000000;stroke-dasharray:1.000000,3.000000;stroke-dashoffset:0.0;stroke-width:0.5;"/>
     </g>
     <g id="line2d_52">
      <g>
       <use style="stroke:#000000;stroke-width:0.5;" x="63.0" xlink:href="#m728421d6d4" y="84.0"/>
      </g>
     </g>
     <g id="line2d_53">
      <g>
       <use style="stroke:#000000;stroke-width:0.5;" x="453.6" xlink:href="#mcb0005524f" y="84.0"/>
      </g>
     </g>
     <g id="text_16">
      <!-- 100 -->
      <g transform="translate(38.21 87.31125)scale(0.12 -0.12)">
       <use xlink:href="#DejaVuSans-31"/>
       <use x="63.623046875" xlink:href="#DejaVuSans-30"/>
       <use x="127.24609375" xlink:href="#DejaVuSans-30"/>
      </g>
     </g>
    </g>
    <g id="ytick_7">
     <g id="line2d_54">
      <path clip-path="url(#pe2810ebbdc)" d="
M63 36
L453.6 36" style="fill:none;stroke:#000000;stroke-dasharray:1.000000,3.000000;stroke-dashoffset:0.0;stroke-width:0.5;"/>
     </g>
     <g id="line2d_55">
      <g>
       <use style="stroke:#000000;stroke-width:0.5;" x="63.0" xlink:href="#m728421d6d4" y="36.0"/>
      </g>
     </g>
     <g id="line2d_56">
      <g>
       <use style="stroke:#000000;stroke-width:0.5;" x="453.6" xlink:href="#mcb0005524f" y="36.0"/>
      </g>
     </g>
     <g id="text_17">
      <!-- 120 -->
      <g transform="translate(38.21 39.31125)scale(0.12 -0.12)">
       <use xlink:href="#DejaVuSans-31"/>
       <use x="63.623046875" xlink:href="#DejaVuSans-32"/>
       <use x="127.24609375" xlink:href="#DejaVuSans-30"/>
      </g>
     </g>
    </g>
    <g id="text_18">
     <!-- Annual Average Crude Oil Price (US $) -->
     <defs>
      <path d="
M39.4062 66.2188
Q28.6562 66.2188 22.3281 58.2031
Q16.0156 50.2031 16.0156 36.375
Q16.0156 22.6094 22.3281 14.5938
Q28.6562 6.59375 39.4062 6.59375
Q50.1406 6.59375 56.4219 14.5938
Q62.7031 22.6094 62.7031 36.375
Q62.7031 50.2031 56.4219 58.2031
Q50.1406 66.2188 39.4062 66.2188
M39.4062 74.2188
Q54.7344 74.2188 63.9062 63.9375
Q73.0938 53.6562 73.0938 36.375
Q73.0938 19.1406 63.9062 8.85938
Q54.7344 -1.42188 39.4062 -1.42188
Q24.0312 -1.42188 14.8125 8.82812
Q5.60938 19.0938 5.60938 36.375
Q5.60938 53.6562 14.8125 63.9375
Q24.0312 74.2188 39.4062 74.2188" id="DejaVuSans-4f"/>
      <path d="
M19.6719 64.7969
L19.6719 37.4062
L32.0781 37.4062
Q38.9688 37.4062 42.7188 40.9688
Q46.4844 44.5312 46.4844 51.125
Q46.4844 57.6719 42.7188 61.2344
Q38.9688 64.7969 32.0781 64.7969
z

M9.8125 72.9062
L32.0781 72.9062
Q44.3438 72.9062 50.6094 67.3594
Q56.8906 61.8125 56.8906 51.125
Q56.8906 40.3281 50.6094 34.8125
Q44.3438 29.2969 32.0781 29.2969
L19.6719 29.2969
L19.6719 0
L9.8125 0
z
" id="DejaVuSans-50"/>
      <path d="
M54.8906 33.0156
L54.8906 0
L45.9062 0
L45.9062 32.7188
Q45.9062 40.4844 42.875 44.3281
Q39.8438 48.1875 33.7969 48.1875
Q26.5156 48.1875 22.3125 43.5469
Q18.1094 38.9219 18.1094 30.9062
L18.1094 0
L9.07812 0
L9.07812 54.6875
L18.1094 54.6875
L18.1094 46.1875
Q21.3438 51.125 25.7031 53.5625
Q30.0781 56 35.7969 56
Q45.2188 56 50.0469 50.1719
Q54.8906 44.3438 54.8906 33.0156" id="DejaVuSans-6e"/>
      <path d="
M9.42188 75.9844
L18.4062 75.9844
L18.4062 0
L9.42188 0
z
" id="DejaVuSans-6c"/>
      <path d="
M48.7812 52.5938
L48.7812 44.1875
Q44.9688 46.2969 41.1406 47.3438
Q37.3125 48.3906 33.4062 48.3906
Q24.6562 48.3906 19.8125 42.8438
Q14.9844 37.3125 14.9844 27.2969
Q14.9844 17.2812 19.8125 11.7344
Q24.6562 6.20312 33.4062 6.20312
Q37.3125 6.20312 41.1406 7.25
Q44.9688 8.29688 48.7812 10.4062
L48.7812 2.09375
Q45.0156 0.34375 40.9844 -0.53125
Q36.9688 -1.42188 32.4219 -1.42188
Q20.0625 -1.42188 12.7812 6.34375
Q5.51562 14.1094 5.51562 27.2969
Q5.51562 40.6719 12.8594 48.3281
Q20.2188 56 33.0156 56
Q37.1562 56 41.1094 55.1406
Q45.0625 54.2969 48.7812 52.5938" id="DejaVuSans-63"/>
      <path d="
M53.5156 70.5156
L53.5156 60.8906
Q47.9062 63.5781 42.9219 64.8906
Q37.9375 66.2188 33.2969 66.2188
Q25.25 66.2188 20.875 63.0938
Q16.5 59.9688 16.5 54.2031
Q16.5 49.3594 19.4062 46.8906
Q22.3125 44.4375 30.4219 42.9219
L36.375 41.7031
Q47.4062 39.5938 52.6562 34.2969
Q57.9062 29 57.9062 20.125
Q57.9062 9.51562 50.7969 4.04688
Q43.7031 -1.42188 29.9844 -1.42188
Q24.8125 -1.42188 18.9688 -0.25
Q13.1406 0.921875 6.89062 3.21875
L6.89062 13.375
Q12.8906 10.0156 18.6562 8.29688
Q24.4219 6.59375 29.9844 6.59375
Q38.4219 6.59375 43.0156 9.90625
Q47.6094 13.2344 47.6094 19.3906
Q47.6094 24.75 44.3125 27.7812
Q41.0156 30.8125 33.5 32.3281
L27.4844 33.5
Q16.4531 35.6875 11.5156 40.375
Q6.59375 45.0625 6.59375 53.4219
Q6.59375 63.0938 13.4062 68.6562
Q20.2188 74.2188 32.1719 74.2188
Q37.3125 74.2188 42.625 73.2812
Q47.9531 72.3594 53.5156 70.5156" id="DejaVuSans-53"/>
      <path d="
M34.1875 63.1875
L20.7969 26.9062
L47.6094 26.9062
z

M28.6094 72.9062
L39.7969 72.9062
L67.5781 0
L57.3281 0
L50.6875 18.7031
L17.8281 18.7031
L11.1875 0
L0.78125 0
z
" id="DejaVuSans-41"/>
      <path d="
M33.7969 -14.7031
L28.9062 -14.7031
L28.8594 0
Q23.7344 0.09375 18.6094 1.1875
Q13.4844 2.29688 8.29688 4.5
L8.29688 13.2812
Q13.2812 10.1562 18.375 8.5625
Q23.4844 6.98438 28.9062 6.9375
L28.9062 29.2031
Q18.1094 30.9531 13.2031 35.1562
Q8.29688 39.3594 8.29688 46.6875
Q8.29688 54.6406 13.625 59.2188
Q18.9531 63.8125 28.9062 64.5
L28.9062 75.9844
L33.7969 75.9844
L33.7969 64.6562
Q38.3281 64.4531 42.5781 63.6875
Q46.8281 62.9375 50.875 61.625
L50.875 53.0781
Q46.8281 55.125 42.5469 56.25
Q38.2812 57.375 33.7969 57.5625
L33.7969 36.7188
Q44.875 35.0156 50.0938 30.6094
Q55.3281 26.2188 55.3281 18.6094
Q55.3281 10.3594 49.7812 5.59375
Q44.2344 0.828125 33.7969 0.09375
z

M28.9062 37.5938
L28.9062 57.625
Q23.25 56.9844 20.2656 54.3906
Q17.2812 51.8125 17.2812 47.5156
Q17.2812 43.3125 20.0312 40.9688
Q22.7969 38.625 28.9062 37.5938
M33.7969 28.2188
L33.7969 7.07812
Q39.9844 7.90625 43.1406 10.5938
Q46.2969 13.2812 46.2969 17.6719
Q46.2969 21.9688 43.2812 24.5
Q40.2812 27.0469 33.7969 28.2188" id="DejaVuSans-24"/>
      <path d="
M64.4062 67.2812
L64.4062 56.8906
Q59.4219 61.5312 53.7812 63.8125
Q48.1406 66.1094 41.7969 66.1094
Q29.2969 66.1094 22.6562 58.4688
Q16.0156 50.8281 16.0156 36.375
Q16.0156 21.9688 22.6562 14.3281
Q29.2969 6.6875 41.7969 6.6875
Q48.1406 6.6875 53.7812 8.98438
Q59.4219 11.2812 64.4062 15.9219
L64.4062 5.60938
Q59.2344 2.09375 53.4375 0.328125
Q47.6562 -1.42188 41.2188 -1.42188
Q24.6562 -1.42188 15.125 8.70312
Q5.60938 18.8438 5.60938 36.375
Q5.60938 53.9531 15.125 64.0781
Q24.6562 74.2188 41.2188 74.2188
Q47.75 74.2188 53.5312 72.4844
Q59.3281 70.75 64.4062 67.2812" id="DejaVuSans-43"/>
      <path d="
M8.5 21.5781
L8.5 54.6875
L17.4844 54.6875
L17.4844 21.9219
Q17.4844 14.1562 20.5 10.2656
Q23.5312 6.39062 29.5938 6.39062
Q36.8594 6.39062 41.0781 11.0312
Q45.3125 15.6719 45.3125 23.6875
L45.3125 54.6875
L54.2969 54.6875
L54.2969 0
L45.3125 0
L45.3125 8.40625
Q42.0469 3.42188 37.7188 1
Q33.4062 -1.42188 27.6875 -1.42188
Q18.2656 -1.42188 13.375 4.4375
Q8.5 10.2969 8.5 21.5781
M31.1094 56
z
" id="DejaVuSans-75"/>
      <path d="
M45.4062 27.9844
Q45.4062 37.75 41.375 43.1094
Q37.3594 48.4844 30.0781 48.4844
Q22.8594 48.4844 18.8281 43.1094
Q14.7969 37.75 14.7969 27.9844
Q14.7969 18.2656 18.8281 12.8906
Q22.8594 7.51562 30.0781 7.51562
Q37.3594 7.51562 41.375 12.8906
Q45.4062 18.2656 45.4062 27.9844
M54.3906 6.78125
Q54.3906 -7.17188 48.1875 -13.9844
Q42 -20.7969 29.2031 -20.7969
Q24.4688 -20.7969 20.2656 -20.0938
Q16.0625 -19.3906 12.1094 -17.9219
L12.1094 -9.1875
Q16.0625 -11.3281 19.9219 -12.3438
Q23.7812 -13.375 27.7812 -13.375
Q36.625 -13.375 41.0156 -8.76562
Q45.4062 -4.15625 45.4062 5.17188
L45.4062 9.625
Q42.625 4.78125 38.2812 2.39062
Q33.9375 0 27.875 0
Q17.8281 0 11.6719 7.65625
Q5.51562 15.3281 5.51562 27.9844
Q5.51562 40.6719 11.6719 48.3281
Q17.8281 56 27.875 56
Q33.9375 56 38.2812 53.6094
Q42.625 51.2188 45.4062 46.3906
L45.4062 54.6875
L54.3906 54.6875
z
" id="DejaVuSans-67"/>
      <path d="
M45.4062 46.3906
L45.4062 75.9844
L54.3906 75.9844
L54.3906 0
L45.4062 0
L45.4062 8.20312
Q42.5781 3.32812 38.25 0.953125
Q33.9375 -1.42188 27.875 -1.42188
Q17.9688 -1.42188 11.7344 6.48438
Q5.51562 14.4062 5.51562 27.2969
Q5.51562 40.1875 11.7344 48.0938
Q17.9688 56 27.875 56
Q33.9375 56 38.25 53.625
Q42.5781 51.2656 45.4062 46.3906
M14.7969 27.2969
Q14.7969 17.3906 18.875 11.75
Q22.9531 6.10938 30.0781 6.10938
Q37.2031 6.10938 41.2969 11.75
Q45.4062 17.3906 45.4062 27.2969
Q45.4062 37.2031 41.2969 42.8438
Q37.2031 48.4844 30.0781 48.4844
Q22.9531 48.4844 18.875 42.8438
Q14.7969 37.2031 14.7969 27.2969" id="DejaVuSans-64"/>
      <path d="
M2.98438 54.6875
L12.5 54.6875
L29.5938 8.79688
L46.6875 54.6875
L56.2031 54.6875
L35.6875 0
L23.4844 0
z
" id="DejaVuSans-76"/>
      <path d="
M9.42188 54.6875
L18.4062 54.6875
L18.4062 0
L9.42188 0
z

M9.42188 75.9844
L18.4062 75.9844
L18.4062 64.5938
L9.42188 64.5938
z
" id="DejaVuSans-69"/>
      <path d="
M8.6875 72.9062
L18.6094 72.9062
L18.6094 28.6094
Q18.6094 16.8906 22.8438 11.7344
Q27.0938 6.59375 36.625 6.59375
Q46.0938 6.59375 50.3438 11.7344
Q54.5938 16.8906 54.5938 28.6094
L54.5938 72.9062
L64.5 72.9062
L64.5 27.3906
Q64.5 13.1406 57.4375 5.85938
Q50.3906 -1.42188 36.625 -1.42188
Q22.7969 -1.42188 15.7344 5.85938
Q8.6875 13.1406 8.6875 27.3906
z
" id="DejaVuSans-55"/>
     </defs>
     <g transform="translate(30.714375 293.7740625)rotate(-90.0)scale(0.12 -0.12)">
      <use xlink:href="#DejaVuSans-41"/>
      <use x="68.408203125" xlink:href="#DejaVuSans-6e"/>
      <use x="131.787109375" xlink:href="#DejaVuSans-6e"/>
      <use x="195.166015625" xlink:href="#DejaVuSans-75"/>
      <use x="258.544921875" xlink:href="#DejaVuSans-61"/>
      <use x="319.82421875" xlink:href="#DejaVuSans-6c"/>
      <use x="347.607421875" xlink:href="#DejaVuSans-20"/>
      <use x="379.39453125" xlink:href="#DejaVuSans-41"/>
      <use x="441.927734375" xlink:href="#DejaVuSans-76"/>
      <use x="501.107421875" xlink:href="#DejaVuSans-65"/>
      <use x="562.630859375" xlink:href="#DejaVuSans-72"/>
      <use x="603.744140625" xlink:href="#DejaVuSans-61"/>
      <use x="665.0234375" xlink:href="#DejaVuSans-67"/>
      <use x="728.5" xlink:href="#DejaVuSans-65"/>
      <use x="790.0234375" xlink:href="#DejaVuSans-20"/>
      <use x="821.810546875" xlink:href="#DejaVuSans-43"/>
      <use x="891.634765625" xlink:href="#DejaVuSans-72"/>
      <use x="932.748046875" xlink:href="#DejaVuSans-75"/>
      <use x="996.126953125" xlink:href="#DejaVuSans-64"/>
      <use x="1059.60351562" xlink:href="#DejaVuSans-65"/>
      <use x="1121.12695312" xlink:href="#DejaVuSans-20"/>
      <use x="1152.9140625" xlink:href="#DejaVuSans-4f"/>
      <use x="1231.625" xlink:href="#DejaVuSans-69"/>
      <use x="1259.40820312" xlink:href="#DejaVuSans-6c"/>
      <use x="1287.19140625" xlink:href="#DejaVuSans-20"/>
      <use x="1318.97851562" xlink:href="#DejaVuSans-50"/>
      <use x="1377.53125" xlink:href="#DejaVuSans-72"/>
      <use x="1418.64453125" xlink:href="#DejaVuSans-69"/>
      <use x="1446.42773438" xlink:href="#DejaVuSans-63"/>
      <use x="1501.40820312" xlink:href="#DejaVuSans-65"/>
      <use x="1562.93164062" xlink:href="#DejaVuSans-20"/>
      <use x="1594.71875" xlink:href="#DejaVuSans-28"/>
      <use x="1633.73242188" xlink:href="#DejaVuSans-55"/>
      <use x="1706.92578125" xlink:href="#DejaVuSans-53"/>
      <use x="1770.40234375" xlink:href="#DejaVuSans-20"/>
      <use x="1802.18945312" xlink:href="#DejaVuSans-24"/>
      <use x="1865.8125" xlink:href="#DejaVuSans-29"/>
     </g>
    </g>
   </g>
   <g id="patch_3">
    <path d="
M63 36
L453.6 36" style="fill:none;stroke:#000000;"/>
   </g>
   <g id="patch_4">
    <path d="
M453.6 324
L453.6 36" style="fill:none;stroke:#000000;"/>
   </g>
   <g id="patch_5">
    <path d="
M63 324
L453.6 324" style="fill:none;stroke:#000000;"/>
   </g>
   <g id="patch_6">
    <path d="
M63 324
L63 36" style="fill:none;stroke:#000000;"/>
   </g>
   <g id="legend_1">
    <g id="patch_7">
     <path d="
M70.2 216.523
L372.634 216.523
L372.634 43.2
L70.2 43.2
L70.2 216.523
z
" style="fill:#ffffff;stroke:#000000;"/>
    </g>
    <g id="line2d_57">
     <path d="
M80.28 54.8617
L100.44 54.8617" style="fill:none;stroke:#0000ff;stroke-linecap:square;"/>
    </g>
    <g id="line2d_58"/>
    <g id="text_19">
     <!-- US Domestic -->
     <defs>
      <path d="
M30.6094 48.3906
Q23.3906 48.3906 19.1875 42.75
Q14.9844 37.1094 14.9844 27.2969
Q14.9844 17.4844 19.1562 11.8438
Q23.3438 6.20312 30.6094 6.20312
Q37.7969 6.20312 41.9844 11.8594
Q46.1875 17.5312 46.1875 27.2969
Q46.1875 37.0156 41.9844 42.7031
Q37.7969 48.3906 30.6094 48.3906
M30.6094 56
Q42.3281 56 49.0156 48.375
Q55.7188 40.7656 55.7188 27.2969
Q55.7188 13.875 49.0156 6.21875
Q42.3281 -1.42188 30.6094 -1.42188
Q18.8438 -1.42188 12.1719 6.21875
Q5.51562 13.875 5.51562 27.2969
Q5.51562 40.7656 12.1719 48.375
Q18.8438 56 30.6094 56" id="DejaVuSans-6f"/>
      <path d="
M52 44.1875
Q55.375 50.25 60.0625 53.125
Q64.75 56 71.0938 56
Q79.6406 56 84.2812 50.0156
Q88.9219 44.0469 88.9219 33.0156
L88.9219 0
L79.8906 0
L79.8906 32.7188
Q79.8906 40.5781 77.0938 44.375
Q74.3125 48.1875 68.6094 48.1875
Q61.625 48.1875 57.5625 43.5469
Q53.5156 38.9219 53.5156 30.9062
L53.5156 0
L44.4844 0
L44.4844 32.7188
Q44.4844 40.625 41.7031 44.4062
Q38.9219 48.1875 33.1094 48.1875
Q26.2188 48.1875 22.1562 43.5312
Q18.1094 38.875 18.1094 30.9062
L18.1094 0
L9.07812 0
L9.07812 54.6875
L18.1094 54.6875
L18.1094 46.1875
Q21.1875 51.2188 25.4844 53.6094
Q29.7812 56 35.6875 56
Q41.6562 56 45.8281 52.9688
Q50 49.9531 52 44.1875" id="DejaVuSans-6d"/>
     </defs>
     <g transform="translate(116.28 59.90175)scale(0.144 -0.144)">
      <use xlink:href="#DejaVuSans-55"/>
      <use x="73.193359375" xlink:href="#DejaVuSans-53"/>
      <use x="136.669921875" xlink:href="#DejaVuSans-20"/>
      <use x="168.45703125" xlink:href="#DejaVuSans-44"/>
      <use x="245.458984375" xlink:href="#DejaVuSans-6f"/>
      <use x="306.640625" xlink:href="#DejaVuSans-6d"/>
      <use x="404.052734375" xlink:href="#DejaVuSans-65"/>
      <use x="465.576171875" xlink:href="#DejaVuSans-73"/>
      <use x="517.67578125" xlink:href="#DejaVuSans-74"/>
      <use x="556.884765625" xlink:href="#DejaVuSans-69"/>
      <use x="584.66796875" xlink:href="#DejaVuSans-63"/>
     </g>
    </g>
    <g id="line2d_59">
     <path d="
M80.28 75.9982
L100.44 75.9982" style="fill:none;stroke:#008000;stroke-linecap:square;"/>
    </g>
    <g id="line2d_60"/>
    <g id="text_20">
     <!-- U.S. Landed of Arabian Light -->
     <defs>
      <path d="
M37.1094 75.9844
L37.1094 68.5
L28.5156 68.5
Q23.6875 68.5 21.7969 66.5469
Q19.9219 64.5938 19.9219 59.5156
L19.9219 54.6875
L34.7188 54.6875
L34.7188 47.7031
L19.9219 47.7031
L19.9219 0
L10.8906 0
L10.8906 47.7031
L2.29688 47.7031
L2.29688 54.6875
L10.8906 54.6875
L10.8906 58.5
Q10.8906 67.625 15.1406 71.7969
Q19.3906 75.9844 28.6094 75.9844
z
" id="DejaVuSans-66"/>
      <path d="
M9.8125 72.9062
L19.6719 72.9062
L19.6719 8.29688
L55.1719 8.29688
L55.1719 0
L9.8125 0
z
" id="DejaVuSans-4c"/>
      <path d="
M48.6875 27.2969
Q48.6875 37.2031 44.6094 42.8438
Q40.5312 48.4844 33.4062 48.4844
Q26.2656 48.4844 22.1875 42.8438
Q18.1094 37.2031 18.1094 27.2969
Q18.1094 17.3906 22.1875 11.75
Q26.2656 6.10938 33.4062 6.10938
Q40.5312 6.10938 44.6094 11.75
Q48.6875 17.3906 48.6875 27.2969
M18.1094 46.3906
Q20.9531 51.2656 25.2656 53.625
Q29.5938 56 35.5938 56
Q45.5625 56 51.7812 48.0938
Q58.0156 40.1875 58.0156 27.2969
Q58.0156 14.4062 51.7812 6.48438
Q45.5625 -1.42188 35.5938 -1.42188
Q29.5938 -1.42188 25.2656 0.953125
Q20.9531 3.32812 18.1094 8.20312
L18.1094 0
L9.07812 0
L9.07812 75.9844
L18.1094 75.9844
z
" id="DejaVuSans-62"/>
      <path d="
M54.8906 33.0156
L54.8906 0
L45.9062 0
L45.9062 32.7188
Q45.9062 40.4844 42.875 44.3281
Q39.8438 48.1875 33.7969 48.1875
Q26.5156 48.1875 22.3125 43.5469
Q18.1094 38.9219 18.1094 30.9062
L18.1094 0
L9.07812 0
L9.07812 75.9844
L18.1094 75.9844
L18.1094 46.1875
Q21.3438 51.125 25.7031 53.5625
Q30.0781 56 35.7969 56
Q45.2188 56 50.0469 50.1719
Q54.8906 44.3438 54.8906 33.0156" id="DejaVuSans-68"/>
      <path d="
M10.6875 12.4062
L21 12.4062
L21 0
L10.6875 0
z
" id="DejaVuSans-2e"/>
     </defs>
     <g transform="translate(116.28 81.03825)scale(0.144 -0.144)">
      <use xlink:href="#DejaVuSans-55"/>
      <use x="73.193359375" xlink:href="#DejaVuSans-2e"/>
      <use x="104.98046875" xlink:href="#DejaVuSans-53"/>
      <use x="168.45703125" xlink:href="#DejaVuSans-2e"/>
      <use x="200.244140625" xlink:href="#DejaVuSans-20"/>
      <use x="232.03125" xlink:href="#DejaVuSans-4c"/>
      <use x="287.744140625" xlink:href="#DejaVuSans-61"/>
      <use x="349.0234375" xlink:href="#DejaVuSans-6e"/>
      <use x="412.40234375" xlink:href="#DejaVuSans-64"/>
      <use x="475.87890625" xlink:href="#DejaVuSans-65"/>
      <use x="537.40234375" xlink:href="#DejaVuSans-64"/>
      <use x="600.87890625" xlink:href="#DejaVuSans-20"/>
      <use x="632.666015625" xlink:href="#DejaVuSans-6f"/>
      <use x="693.84765625" xlink:href="#DejaVuSans-66"/>
      <use x="729.052734375" xlink:href="#DejaVuSans-20"/>
      <use x="760.83984375" xlink:href="#DejaVuSans-41"/>
      <use x="829.248046875" xlink:href="#DejaVuSans-72"/>
      <use x="870.361328125" xlink:href="#DejaVuSans-61"/>
      <use x="931.640625" xlink:href="#DejaVuSans-62"/>
      <use x="995.1171875" xlink:href="#DejaVuSans-69"/>
      <use x="1022.90039062" xlink:href="#DejaVuSans-61"/>
      <use x="1084.1796875" xlink:href="#DejaVuSans-6e"/>
      <use x="1147.55859375" xlink:href="#DejaVuSans-20"/>
      <use x="1179.34570312" xlink:href="#DejaVuSans-4c"/>
      <use x="1235.05859375" xlink:href="#DejaVuSans-69"/>
      <use x="1262.84179688" xlink:href="#DejaVuSans-67"/>
      <use x="1326.31835938" xlink:href="#DejaVuSans-68"/>
      <use x="1389.69726562" xlink:href="#DejaVuSans-74"/>
     </g>
    </g>
    <g id="line2d_61">
     <path d="
M80.28 97.1347
L100.44 97.1347" style="fill:none;stroke:#ff0000;stroke-linecap:square;"/>
    </g>
    <g id="line2d_62"/>
    <g id="text_21">
     <!-- Arabian Light posted at Ras Tanura -->
     <defs>
      <path d="
M44.3906 34.1875
Q47.5625 33.1094 50.5625 29.5938
Q53.5625 26.0781 56.5938 19.9219
L66.6094 0
L56 0
L46.6875 18.7031
Q43.0625 26.0312 39.6719 28.4219
Q36.2812 30.8125 30.4219 30.8125
L19.6719 30.8125
L19.6719 0
L9.8125 0
L9.8125 72.9062
L32.0781 72.9062
Q44.5781 72.9062 50.7344 67.6719
Q56.8906 62.4531 56.8906 51.9062
Q56.8906 45.0156 53.6875 40.4688
Q50.4844 35.9375 44.3906 34.1875
M19.6719 64.7969
L19.6719 38.9219
L32.0781 38.9219
Q39.2031 38.9219 42.8438 42.2188
Q46.4844 45.5156 46.4844 51.9062
Q46.4844 58.2969 42.8438 61.5469
Q39.2031 64.7969 32.0781 64.7969
z
" id="DejaVuSans-52"/>
      <path d="
M18.1094 8.20312
L18.1094 -20.7969
L9.07812 -20.7969
L9.07812 54.6875
L18.1094 54.6875
L18.1094 46.3906
Q20.9531 51.2656 25.2656 53.625
Q29.5938 56 35.5938 56
Q45.5625 56 51.7812 48.0938
Q58.0156 40.1875 58.0156 27.2969
Q58.0156 14.4062 51.7812 6.48438
Q45.5625 -1.42188 35.5938 -1.42188
Q29.5938 -1.42188 25.2656 0.953125
Q20.9531 3.32812 18.1094 8.20312
M48.6875 27.2969
Q48.6875 37.2031 44.6094 42.8438
Q40.5312 48.4844 33.4062 48.4844
Q26.2656 48.4844 22.1875 42.8438
Q18.1094 37.2031 18.1094 27.2969
Q18.1094 17.3906 22.1875 11.75
Q26.2656 6.10938 33.4062 6.10938
Q40.5312 6.10938 44.6094 11.75
Q48.6875 17.3906 48.6875 27.2969" id="DejaVuSans-70"/>
      <path d="
M-0.296875 72.9062
L61.375 72.9062
L61.375 64.5938
L35.5 64.5938
L35.5 0
L25.5938 0
L25.5938 64.5938
L-0.296875 64.5938
z
" id="DejaVuSans-54"/>
     </defs>
     <g transform="translate(116.28 102.17475)scale(0.144 -0.144)">
      <use xlink:href="#DejaVuSans-41"/>
      <use x="68.408203125" xlink:href="#DejaVuSans-72"/>
      <use x="109.521484375" xlink:href="#DejaVuSans-61"/>
      <use x="170.80078125" xlink:href="#DejaVuSans-62"/>
      <use x="234.27734375" xlink:href="#DejaVuSans-69"/>
      <use x="262.060546875" xlink:href="#DejaVuSans-61"/>
      <use x="323.33984375" xlink:href="#DejaVuSans-6e"/>
      <use x="386.71875" xlink:href="#DejaVuSans-20"/>
      <use x="418.505859375" xlink:href="#DejaVuSans-4c"/>
      <use x="474.21875" xlink:href="#DejaVuSans-69"/>
      <use x="502.001953125" xlink:href="#DejaVuSans-67"/>
      <use x="565.478515625" xlink:href="#DejaVuSans-68"/>
      <use x="628.857421875" xlink:href="#DejaVuSans-74"/>
      <use x="668.06640625" xlink:href="#DejaVuSans-20"/>
      <use x="699.853515625" xlink:href="#DejaVuSans-70"/>
      <use x="763.330078125" xlink:href="#DejaVuSans-6f"/>
      <use x="824.51171875" xlink:href="#DejaVuSans-73"/>
      <use x="876.611328125" xlink:href="#DejaVuSans-74"/>
      <use x="915.8203125" xlink:href="#DejaVuSans-65"/>
      <use x="977.34375" xlink:href="#DejaVuSans-64"/>
      <use x="1040.8203125" xlink:href="#DejaVuSans-20"/>
      <use x="1072.60742188" xlink:href="#DejaVuSans-61"/>
      <use x="1133.88671875" xlink:href="#DejaVuSans-74"/>
      <use x="1173.09570312" xlink:href="#DejaVuSans-20"/>
      <use x="1204.8828125" xlink:href="#DejaVuSans-52"/>
      <use x="1272.11523438" xlink:href="#DejaVuSans-61"/>
      <use x="1333.39453125" xlink:href="#DejaVuSans-73"/>
      <use x="1385.49414062" xlink:href="#DejaVuSans-20"/>
      <use x="1417.28125" xlink:href="#DejaVuSans-54"/>
      <use x="1461.86523438" xlink:href="#DejaVuSans-61"/>
      <use x="1523.14453125" xlink:href="#DejaVuSans-6e"/>
      <use x="1586.5234375" xlink:href="#DejaVuSans-75"/>
      <use x="1649.90234375" xlink:href="#DejaVuSans-72"/>
      <use x="1691.015625" xlink:href="#DejaVuSans-61"/>
     </g>
    </g>
    <g id="line2d_63">
     <path d="
M80.28 118.271
L100.44 118.271" style="fill:none;stroke:#00bfbf;stroke-linecap:square;"/>
    </g>
    <g id="line2d_64"/>
    <g id="text_22">
     <!-- Brent Crude -->
     <defs>
      <path d="
M19.6719 34.8125
L19.6719 8.10938
L35.5 8.10938
Q43.4531 8.10938 47.2812 11.4062
Q51.125 14.7031 51.125 21.4844
Q51.125 28.3281 47.2812 31.5625
Q43.4531 34.8125 35.5 34.8125
z

M19.6719 64.7969
L19.6719 42.8281
L34.2812 42.8281
Q41.5 42.8281 45.0312 45.5312
Q48.5781 48.25 48.5781 53.8125
Q48.5781 59.3281 45.0312 62.0625
Q41.5 64.7969 34.2812 64.7969
z

M9.8125 72.9062
L35.0156 72.9062
Q46.2969 72.9062 52.3906 68.2188
Q58.5 63.5312 58.5 54.8906
Q58.5 48.1875 55.375 44.2344
Q52.25 40.2812 46.1875 39.3125
Q53.4688 37.75 57.5 32.7812
Q61.5312 27.8281 61.5312 20.4062
Q61.5312 10.6406 54.8906 5.3125
Q48.25 0 35.9844 0
L9.8125 0
z
" id="DejaVuSans-42"/>
     </defs>
     <g transform="translate(116.28 123.31125)scale(0.144 -0.144)">
      <use xlink:href="#DejaVuSans-42"/>
      <use x="68.603515625" xlink:href="#DejaVuSans-72"/>
      <use x="107.466796875" xlink:href="#DejaVuSans-65"/>
      <use x="168.990234375" xlink:href="#DejaVuSans-6e"/>
      <use x="232.369140625" xlink:href="#DejaVuSans-74"/>
      <use x="271.578125" xlink:href="#DejaVuSans-20"/>
      <use x="303.365234375" xlink:href="#DejaVuSans-43"/>
      <use x="373.189453125" xlink:href="#DejaVuSans-72"/>
      <use x="414.302734375" xlink:href="#DejaVuSans-75"/>
      <use x="477.681640625" xlink:href="#DejaVuSans-64"/>
      <use x="541.158203125" xlink:href="#DejaVuSans-65"/>
     </g>
    </g>
    <g id="line2d_65">
     <path d="
M80.28 139.408
L100.44 139.408" style="fill:none;stroke:#bf00bf;stroke-linecap:square;"/>
    </g>
    <g id="line2d_66"/>
    <g id="text_23">
     <!-- West Texas Intermediate Crude -->
     <defs>
      <path d="
M3.32812 72.9062
L13.2812 72.9062
L28.6094 11.2812
L43.8906 72.9062
L54.9844 72.9062
L70.3125 11.2812
L85.5938 72.9062
L95.6094 72.9062
L77.2969 0
L64.8906 0
L49.5156 63.2812
L33.9844 0
L21.5781 0
z
" id="DejaVuSans-57"/>
      <path d="
M54.8906 54.6875
L35.1094 28.0781
L55.9062 0
L45.3125 0
L29.3906 21.4844
L13.4844 0
L2.875 0
L24.125 28.6094
L4.6875 54.6875
L15.2812 54.6875
L29.7812 35.2031
L44.2812 54.6875
z
" id="DejaVuSans-78"/>
      <path d="
M9.8125 72.9062
L19.6719 72.9062
L19.6719 0
L9.8125 0
z
" id="DejaVuSans-49"/>
     </defs>
     <g transform="translate(116.28 144.44775)scale(0.144 -0.144)">
      <use xlink:href="#DejaVuSans-57"/>
      <use x="93.001953125" xlink:href="#DejaVuSans-65"/>
      <use x="154.525390625" xlink:href="#DejaVuSans-73"/>
      <use x="206.625" xlink:href="#DejaVuSans-74"/>
      <use x="245.833984375" xlink:href="#DejaVuSans-20"/>
      <use x="277.62109375" xlink:href="#DejaVuSans-54"/>
      <use x="321.705078125" xlink:href="#DejaVuSans-65"/>
      <use x="381.478515625" xlink:href="#DejaVuSans-78"/>
      <use x="440.658203125" xlink:href="#DejaVuSans-61"/>
      <use x="501.9375" xlink:href="#DejaVuSans-73"/>
      <use x="554.037109375" xlink:href="#DejaVuSans-20"/>
      <use x="585.82421875" xlink:href="#DejaVuSans-49"/>
      <use x="615.31640625" xlink:href="#DejaVuSans-6e"/>
      <use x="678.6953125" xlink:href="#DejaVuSans-74"/>
      <use x="717.904296875" xlink:href="#DejaVuSans-65"/>
      <use x="779.427734375" xlink:href="#DejaVuSans-72"/>
      <use x="818.791015625" xlink:href="#DejaVuSans-6d"/>
      <use x="916.203125" xlink:href="#DejaVuSans-65"/>
      <use x="977.7265625" xlink:href="#DejaVuSans-64"/>
      <use x="1041.203125" xlink:href="#DejaVuSans-69"/>
      <use x="1068.98632812" xlink:href="#DejaVuSans-61"/>
      <use x="1130.265625" xlink:href="#DejaVuSans-74"/>
      <use x="1169.47460938" xlink:href="#DejaVuSans-65"/>
      <use x="1230.99804688" xlink:href="#DejaVuSans-20"/>
      <use x="1262.78515625" xlink:href="#DejaVuSans-43"/>
      <use x="1332.609375" xlink:href="#DejaVuSans-72"/>
      <use x="1373.72265625" xlink:href="#DejaVuSans-75"/>
      <use x="1437.1015625" xlink:href="#DejaVuSans-64"/>
      <use x="1500.578125" xlink:href="#DejaVuSans-65"/>
     </g>
    </g>
    <g id="line2d_67">
     <path d="
M80.28 160.544
L100.44 160.544" style="fill:none;stroke:#bfbf00;stroke-linecap:square;"/>
    </g>
    <g id="line2d_68"/>
    <g id="text_24">
     <!-- US Imported Crude -->
     <g transform="translate(116.28 165.58425)scale(0.144 -0.144)">
      <use xlink:href="#DejaVuSans-55"/>
      <use x="73.193359375" xlink:href="#DejaVuSans-53"/>
      <use x="136.669921875" xlink:href="#DejaVuSans-20"/>
      <use x="168.45703125" xlink:href="#DejaVuSans-49"/>
      <use x="197.94921875" xlink:href="#DejaVuSans-6d"/>
      <use x="295.361328125" xlink:href="#DejaVuSans-70"/>
      <use x="358.837890625" xlink:href="#DejaVuSans-6f"/>
      <use x="420.01953125" xlink:href="#DejaVuSans-72"/>
      <use x="461.1328125" xlink:href="#DejaVuSans-74"/>
      <use x="500.341796875" xlink:href="#DejaVuSans-65"/>
      <use x="561.865234375" xlink:href="#DejaVuSans-64"/>
      <use x="625.341796875" xlink:href="#DejaVuSans-20"/>
      <use x="657.12890625" xlink:href="#DejaVuSans-43"/>
      <use x="726.953125" xlink:href="#DejaVuSans-72"/>
      <use x="768.06640625" xlink:href="#DejaVuSans-75"/>
      <use x="831.4453125" xlink:href="#DejaVuSans-64"/>
      <use x="894.921875" xlink:href="#DejaVuSans-65"/>
     </g>
    </g>
    <g id="line2d_69">
     <path d="
M80.28 181.681
L100.44 181.681" style="fill:none;stroke:#000000;stroke-linecap:square;"/>
    </g>
    <g id="line2d_70"/>
    <g id="text_25">
     <!-- US Domestic Acquisition -->
     <defs>
      <path d="
M14.7969 27.2969
Q14.7969 17.3906 18.875 11.75
Q22.9531 6.10938 30.0781 6.10938
Q37.2031 6.10938 41.2969 11.75
Q45.4062 17.3906 45.4062 27.2969
Q45.4062 37.2031 41.2969 42.8438
Q37.2031 48.4844 30.0781 48.4844
Q22.9531 48.4844 18.875 42.8438
Q14.7969 37.2031 14.7969 27.2969
M45.4062 8.20312
Q42.5781 3.32812 38.25 0.953125
Q33.9375 -1.42188 27.875 -1.42188
Q17.9688 -1.42188 11.7344 6.48438
Q5.51562 14.4062 5.51562 27.2969
Q5.51562 40.1875 11.7344 48.0938
Q17.9688 56 27.875 56
Q33.9375 56 38.25 53.625
Q42.5781 51.2656 45.4062 46.3906
L45.4062 54.6875
L54.3906 54.6875
L54.3906 -20.7969
L45.4062 -20.7969
z
" id="DejaVuSans-71"/>
     </defs>
     <g transform="translate(116.28 186.72075)scale(0.144 -0.144)">
      <use xlink:href="#DejaVuSans-55"/>
      <use x="73.193359375" xlink:href="#DejaVuSans-53"/>
      <use x="136.669921875" xlink:href="#DejaVuSans-20"/>
      <use x="168.45703125" xlink:href="#DejaVuSans-44"/>
      <use x="245.458984375" xlink:href="#DejaVuSans-6f"/>
      <use x="306.640625" xlink:href="#DejaVuSans-6d"/>
      <use x="404.052734375" xlink:href="#DejaVuSans-65"/>
      <use x="465.576171875" xlink:href="#DejaVuSans-73"/>
      <use x="517.67578125" xlink:href="#DejaVuSans-74"/>
      <use x="556.884765625" xlink:href="#DejaVuSans-69"/>
      <use x="584.66796875" xlink:href="#DejaVuSans-63"/>
      <use x="639.6484375" xlink:href="#DejaVuSans-20"/>
      <use x="671.435546875" xlink:href="#DejaVuSans-41"/>
      <use x="738.09375" xlink:href="#DejaVuSans-63"/>
      <use x="793.07421875" xlink:href="#DejaVuSans-71"/>
      <use x="856.55078125" xlink:href="#DejaVuSans-75"/>
      <use x="919.9296875" xlink:href="#DejaVuSans-69"/>
      <use x="947.712890625" xlink:href="#DejaVuSans-73"/>
      <use x="999.8125" xlink:href="#DejaVuSans-69"/>
      <use x="1027.59570312" xlink:href="#DejaVuSans-74"/>
      <use x="1066.8046875" xlink:href="#DejaVuSans-69"/>
      <use x="1094.58789062" xlink:href="#DejaVuSans-6f"/>
      <use x="1155.76953125" xlink:href="#DejaVuSans-6e"/>
     </g>
    </g>
    <g id="line2d_71">
     <path d="
M80.28 202.817
L100.44 202.817" style="fill:none;stroke:#0000ff;stroke-linecap:square;"/>
    </g>
    <g id="line2d_72"/>
    <g id="text_26">
     <!-- Dubai Crude  -->
     <g transform="translate(116.28 207.85725)scale(0.144 -0.144)">
      <use xlink:href="#DejaVuSans-44"/>
      <use x="77.001953125" xlink:href="#DejaVuSans-75"/>
      <use x="140.380859375" xlink:href="#DejaVuSans-62"/>
      <use x="203.857421875" xlink:href="#DejaVuSans-61"/>
      <use x="265.13671875" xlink:href="#DejaVuSans-69"/>
      <use x="292.919921875" xlink:href="#DejaVuSans-20"/>
      <use x="324.70703125" xlink:href="#DejaVuSans-43"/>
      <use x="394.53125" xlink:href="#DejaVuSans-72"/>
      <use x="435.64453125" xlink:href="#DejaVuSans-75"/>
      <use x="499.0234375" xlink:href="#DejaVuSans-64"/>
      <use x="562.5" xlink:href="#DejaVuSans-65"/>
      <use x="624.0234375" xlink:href="#DejaVuSans-20"/>
     </g>
    </g>
   </g>
  </g>
 </g>
 <defs>
  <clipPath id="pe2810ebbdc">
   <rect height="288.0" width="390.6" x="63.0" y="36.0"/>
  </clipPath>
 </defs>
</svg>
